<svg width="49" height="19" viewBox="0 0 49 19" fill="none" xmlns="http://www.w3.org/2000/svg">
<rect width="49" height="19" fill="#CDC7E5"/>
<path d="M24.2757 11.3346L27.2457 12.8746C27.6147 13.065 27.9117 12.9754 27.9117 12.6786V11.3906L30.7827 12.8746C31.1517 13.065 31.4487 12.9754 31.4487 12.6786V9.29617C31.4487 8.99937 31.1517 8.90977 30.7827 9.10017L27.9207 10.5842V9.29617C27.9207 8.99937 27.6237 8.90977 27.2547 9.10017L24.2847 10.6402C23.9067 10.8306 23.9067 11.1442 24.2757 11.3346Z" fill="#FFD90F"/>
<path d="M5.15958 12.2651C5.09291 12.2651 5.05961 12.2334 5.05966 12.17C5.05967 12.1534 5.06636 12.1284 5.07972 12.0951C5.09641 12.0651 5.11978 12.0218 5.14983 11.9651L5.43528 11.4354C5.58885 11.1588 5.72239 10.9056 5.83592 10.6757C5.95278 10.4425 6.05296 10.2342 6.13645 10.051C6.38693 9.48117 6.51229 9.04961 6.51254 8.75627C6.51255 8.73627 6.52591 8.71295 6.5526 8.68631C6.58262 8.65966 6.61096 8.64636 6.63763 8.64638C6.67763 8.64641 6.6976 8.68476 6.69753 8.76143C6.69735 8.97809 6.61874 9.30636 6.4617 9.74623C6.39823 9.91284 6.33309 10.0745 6.26629 10.2311C6.1995 10.3877 6.12937 10.5393 6.05591 10.6859C6.19939 10.5127 6.34787 10.3445 6.50134 10.1813C6.65481 10.0181 6.81494 9.85986 6.98174 9.70667C7.47546 9.24375 7.83566 9.01239 8.06232 9.01258C8.20566 9.0127 8.27724 9.10609 8.27709 9.29276C8.27692 9.49276 8.17828 9.85268 7.98118 10.3725C7.72729 11.0256 7.58698 11.4005 7.56023 11.4972C8.31767 10.5811 9.08823 9.91344 9.87192 9.4941C9.97863 9.43753 10.0903 9.38262 10.2071 9.32939C10.3271 9.27282 10.4188 9.24456 10.4821 9.24462C10.5755 9.2447 10.6221 9.3014 10.622 9.41474C10.6219 9.4714 10.6119 9.53973 10.5918 9.61971C10.5717 9.69969 10.5383 9.788 10.4916 9.88463L10.0308 10.8592C9.98735 10.9525 9.93893 11.0558 9.88551 11.1691C9.83541 11.2824 9.78698 11.3957 9.74022 11.509C9.69679 11.619 9.66004 11.7189 9.62997 11.8089C9.59989 11.8955 9.58484 11.9622 9.5848 12.0089C9.58475 12.0622 9.6064 12.0889 9.64973 12.0889C9.7164 12.089 9.79976 12.049 9.89983 11.9691C10.0032 11.8892 10.1133 11.7876 10.2301 11.6644C10.2468 11.6444 10.2685 11.6211 10.2951 11.5945C10.3252 11.5678 10.3518 11.5545 10.3752 11.5545C10.4285 11.5546 10.4552 11.5846 10.4551 11.6446C10.4551 11.6546 10.4518 11.6663 10.4451 11.6796C10.4384 11.6896 10.4234 11.7062 10.4 11.7295C10.3567 11.7728 10.3133 11.8161 10.2699 11.8594C10.2266 11.9027 10.1865 11.941 10.1498 11.9743C10.0631 12.0476 9.97138 12.1125 9.87466 12.1691C9.78128 12.229 9.69125 12.259 9.60459 12.2589C9.46792 12.2588 9.39965 12.182 9.39978 12.0287C9.39986 11.9354 9.43331 11.7904 9.50015 11.5938C9.56698 11.3972 9.66886 11.1489 9.80577 10.849L10.3317 9.70949C10.3685 9.63286 10.3918 9.57954 10.4019 9.54955C10.4119 9.51622 10.4169 9.4929 10.4169 9.47956C10.4169 9.45956 10.4086 9.44956 10.392 9.44954C10.3853 9.44954 10.367 9.45452 10.3369 9.4645C10.3103 9.47114 10.2619 9.4911 10.1919 9.52437C9.98848 9.61753 9.76504 9.74235 9.52158 9.89881C9.27811 10.0553 9.0513 10.2251 8.84115 10.4082C8.67102 10.5548 8.51924 10.6946 8.38579 10.8279C8.25235 10.9611 8.12223 11.0993 7.99544 11.2425C7.86866 11.3857 7.72852 11.549 7.57503 11.7322C7.53165 11.7821 7.50162 11.8171 7.48494 11.8371C7.46826 11.8537 7.44159 11.8621 7.40492 11.862C7.34825 11.862 7.31995 11.832 7.32 11.772C7.32005 11.7086 7.33345 11.6253 7.36021 11.522C7.38696 11.4187 7.42038 11.3137 7.46047 11.2071L7.83131 10.2174C7.92151 9.97413 7.98835 9.77252 8.03182 9.61255C8.07528 9.45259 8.09705 9.33261 8.09712 9.25261C8.09718 9.18594 8.06887 9.15258 8.0122 9.15254C7.9022 9.15244 7.65372 9.3289 7.26676 9.68191C7.13332 9.80513 7.00822 9.92336 6.89146 10.0366C6.7747 10.1498 6.66794 10.2597 6.57118 10.3663C6.44106 10.5062 6.32262 10.6394 6.21584 10.766C6.10907 10.8926 6.00563 11.0242 5.90551 11.1608C5.80873 11.294 5.70861 11.4423 5.60514 11.6055C5.50166 11.7688 5.38984 11.9587 5.26966 12.1752C5.23627 12.2352 5.19958 12.2652 5.15958 12.2651ZM11.4638 12.0954C11.3238 12.0953 11.2138 12.0469 11.1339 11.9502C11.054 11.8534 11.0141 11.7351 11.0142 11.5951C11.0144 11.3551 11.0946 11.1085 11.2548 10.8553C11.2982 10.7853 11.3483 10.717 11.405 10.6504C11.4617 10.5804 11.5235 10.5138 11.5902 10.4506C11.6903 10.354 11.7953 10.2741 11.9054 10.2108C12.0154 10.1476 12.1221 10.116 12.2255 10.1161C12.3955 10.1162 12.4804 10.1963 12.4803 10.3563C12.4801 10.5563 12.3633 10.7379 12.1298 10.901C11.913 11.0475 11.6996 11.1206 11.4896 11.1205C11.4529 11.1204 11.4196 11.1187 11.3896 11.1154C11.363 11.1087 11.338 11.102 11.3146 11.0953C11.2812 11.1586 11.2512 11.2403 11.2244 11.3402C11.1977 11.4402 11.1843 11.5269 11.1842 11.6002C11.184 11.8202 11.2806 11.9303 11.4739 11.9305C11.6306 11.9306 11.7789 11.904 11.919 11.8508C12.059 11.7943 12.2258 11.6894 12.4193 11.5363C12.5393 11.443 12.6294 11.3681 12.6894 11.3115C12.7495 11.2549 12.8145 11.1949 12.8846 11.1316C12.9046 11.1183 12.923 11.1117 12.9396 11.1117C12.9563 11.1117 12.9729 11.1167 12.9896 11.1267C13.0063 11.1367 13.0146 11.1518 13.0146 11.1718C13.0145 11.2084 12.9812 11.2601 12.9144 11.3267C12.8577 11.38 12.7977 11.4366 12.7343 11.4965C12.6709 11.5531 12.5708 11.633 12.4341 11.7363C12.2873 11.8495 12.1273 11.9377 11.9539 12.0009C11.7805 12.064 11.6171 12.0956 11.4638 12.0954ZM11.4597 10.9604C11.5664 10.9605 11.6681 10.944 11.7648 10.9107C11.8615 10.8774 11.9532 10.8292 12.0399 10.7659C12.2334 10.6228 12.3301 10.4878 12.3302 10.3612C12.3303 10.3045 12.2953 10.2761 12.2253 10.2761C12.092 10.276 11.9369 10.3575 11.7601 10.5207C11.6734 10.6006 11.6017 10.6739 11.5449 10.7405C11.4915 10.8038 11.4415 10.8738 11.3948 10.9504C11.4147 10.9571 11.4364 10.9604 11.4597 10.9604ZM12.5515 12.1764C12.4949 12.1763 12.4666 12.1496 12.4666 12.0963C12.4666 12.093 12.4866 12.0513 12.5267 11.9713C12.5668 11.8914 12.6235 11.7731 12.697 11.6165L12.9525 11.0817C13.056 10.8651 13.1294 10.6935 13.1729 10.5669C13.2197 10.4403 13.2431 10.3586 13.2431 10.3219C13.2431 10.2686 13.2698 10.242 13.3232 10.242C13.3765 10.2421 13.4031 10.2687 13.4031 10.3221C13.4031 10.3654 13.388 10.4337 13.3579 10.527C13.3312 10.617 13.2861 10.7336 13.2226 10.8769L12.9671 11.4567C13.6645 10.5773 14.1899 10.1377 14.5433 10.138C14.6099 10.1381 14.6616 10.1665 14.6982 10.2232C14.7348 10.2765 14.7531 10.3366 14.753 10.4032C14.7529 10.5632 14.6377 10.8415 14.4073 11.2379C14.5841 11.0581 14.7626 10.8782 14.9428 10.6984C15.1263 10.5152 15.3098 10.3354 15.4932 10.1588C15.5399 10.1155 15.5783 10.0939 15.6083 10.0939C15.6483 10.094 15.6816 10.114 15.7082 10.154C15.7349 10.1907 15.7482 10.2307 15.7481 10.2741C15.7481 10.3074 15.7331 10.349 15.703 10.399C15.6596 10.4723 15.6196 10.5606 15.5828 10.6639C15.5461 10.7639 15.5043 10.8772 15.4575 11.0038C15.4041 11.1471 15.3656 11.2721 15.3422 11.3787C15.3188 11.4854 15.307 11.572 15.307 11.6387C15.3069 11.722 15.3269 11.7837 15.3668 11.8237C15.4068 11.8604 15.4468 11.8788 15.4868 11.8788C15.5568 11.8789 15.6335 11.8606 15.7168 11.824C15.8002 11.7874 15.8686 11.7508 15.9219 11.7142C16.0286 11.6443 16.1404 11.5577 16.2571 11.4545C16.3739 11.3479 16.4857 11.2413 16.5924 11.1348C16.6058 11.1214 16.6258 11.1148 16.6524 11.1148C16.7024 11.1149 16.7274 11.1349 16.7274 11.1749C16.7273 11.2115 16.704 11.2532 16.6573 11.2998C16.5238 11.433 16.4037 11.5479 16.297 11.6445C16.1902 11.7378 16.0885 11.8143 15.9918 11.8743C15.9284 11.9109 15.8517 11.9491 15.7617 11.9891C15.6717 12.029 15.575 12.0489 15.4716 12.0488C15.375 12.0487 15.2933 12.0187 15.2267 11.9586C15.1634 11.8986 15.1319 11.7702 15.132 11.5735C15.1321 11.4969 15.1455 11.4069 15.1723 11.3036C15.199 11.1969 15.2391 11.0786 15.2926 10.9487L15.5581 10.3189L14.8425 11.0383C14.7591 11.1216 14.6907 11.1915 14.6373 11.2481C14.5839 11.3047 14.5406 11.3514 14.5072 11.388C14.4438 11.4546 14.3871 11.5196 14.337 11.5829C14.2903 11.6462 14.2503 11.7011 14.2169 11.7478C14.1935 11.7844 14.1668 11.8027 14.1368 11.8027C14.0802 11.8027 14.0519 11.7793 14.0519 11.7326C14.052 11.6293 14.1455 11.391 14.3325 11.0179C14.5195 10.6447 14.613 10.4214 14.6131 10.3481C14.6131 10.3148 14.5764 10.2981 14.5031 10.298C14.2064 10.2978 13.6777 10.7823 12.9169 11.7517C12.8535 11.8416 12.7484 11.9765 12.6015 12.1564C12.5915 12.1697 12.5749 12.1764 12.5515 12.1764ZM16.9277 12.1001C16.7877 12.0999 16.6777 12.0515 16.5978 11.9548C16.5179 11.858 16.478 11.7397 16.4781 11.5997C16.4783 11.3597 16.5585 11.1131 16.7187 10.8599C16.7621 10.7899 16.8121 10.7216 16.8689 10.655C16.9256 10.585 16.9873 10.5184 17.054 10.4552C17.1541 10.3586 17.2592 10.2787 17.3692 10.2154C17.4793 10.1522 17.586 10.1206 17.6893 10.1207C17.8593 10.1208 17.9443 10.2009 17.9441 10.3609C17.944 10.5609 17.8271 10.7425 17.5937 10.9056C17.3769 11.0521 17.1635 11.1252 16.9535 11.1251C16.9168 11.125 16.8835 11.1233 16.8535 11.12C16.8268 11.1133 16.8018 11.1066 16.7785 11.0999C16.7451 11.1632 16.715 11.2449 16.6883 11.3448C16.6615 11.4448 16.6481 11.5315 16.6481 11.6048C16.6479 11.8248 16.7445 11.9349 16.9378 11.9351C17.0945 11.9352 17.2428 11.9086 17.3829 11.8554C17.5229 11.7989 17.6897 11.694 17.8831 11.5409C18.0032 11.4476 18.0933 11.3727 18.1533 11.3161C18.2134 11.2595 18.2784 11.1995 18.3485 11.1362C18.3685 11.1229 18.3868 11.1163 18.4035 11.1163C18.4201 11.1163 18.4368 11.1213 18.4535 11.1313C18.4701 11.1413 18.4784 11.1564 18.4784 11.1764C18.4784 11.213 18.445 11.2647 18.3783 11.3313C18.3216 11.3846 18.2615 11.4412 18.1982 11.5011C18.1348 11.5577 18.0347 11.6376 17.898 11.7409C17.7512 11.8541 17.5911 11.9423 17.4177 12.0055C17.2443 12.0687 17.081 12.1002 16.9277 12.1001ZM16.9236 10.965C17.0303 10.9651 17.132 10.9486 17.2287 10.9153C17.3253 10.8821 17.4171 10.8338 17.5038 10.7705C17.6972 10.6274 17.794 10.4924 17.7941 10.3658C17.7942 10.3091 17.7592 10.2808 17.6892 10.2807C17.5559 10.2806 17.4008 10.3621 17.224 10.5253C17.1372 10.6052 17.0655 10.6785 17.0088 10.7451C16.9554 10.8084 16.9053 10.8784 16.8586 10.955C16.8786 10.9617 16.9003 10.965 16.9236 10.965ZM18.0104 12.136C17.9571 12.1359 17.9305 12.1142 17.9305 12.0709C17.9305 12.0542 17.9372 12.0342 17.9505 12.0109C17.9639 11.9843 17.9756 11.9626 17.9856 11.9459L18.4364 11.0413C18.63 10.6482 18.7269 10.4299 18.7269 10.3866C18.7269 10.3399 18.7503 10.3166 18.797 10.3166C18.8603 10.3167 18.8919 10.35 18.8919 10.4167C18.8919 10.44 18.8768 10.49 18.8468 10.5667C18.8167 10.6433 18.7783 10.7299 18.7315 10.8266C18.6514 10.9998 18.5846 11.1331 18.5312 11.2264C18.6313 11.1098 18.7331 10.9999 18.8365 10.8967C18.9399 10.7934 19.045 10.6952 19.1517 10.6019C19.4686 10.3255 19.7121 10.1874 19.8821 10.1875C19.9987 10.1876 20.057 10.2427 20.0569 10.3527C20.0569 10.4527 19.9717 10.6776 19.8014 11.0275C19.6311 11.3807 19.5459 11.6039 19.5458 11.6973C19.5458 11.7406 19.5608 11.7623 19.5908 11.7623C19.6008 11.7623 19.6158 11.759 19.6358 11.7523C19.6591 11.7424 19.6824 11.7374 19.7058 11.7374C19.7624 11.7374 19.7907 11.7641 19.7907 11.8175C19.7906 11.8841 19.719 11.9174 19.5756 11.9173C19.509 11.9172 19.4606 11.9022 19.4307 11.8722C19.4007 11.8388 19.3857 11.7955 19.3858 11.7421C19.3859 11.5821 19.4678 11.3389 19.6314 11.0123C19.795 10.6891 19.8768 10.4942 19.8769 10.4275C19.8769 10.3875 19.8619 10.3675 19.8319 10.3675C19.7586 10.3674 19.6402 10.429 19.4768 10.5522C19.3 10.6854 19.1232 10.8386 18.9464 11.0118C18.7696 11.1849 18.6011 11.3831 18.4409 11.6063L18.0905 12.091C18.0704 12.121 18.0438 12.136 18.0104 12.136ZM20.1776 12.3578C20.1142 12.3577 20.0826 12.3077 20.0827 12.2077C20.0828 12.061 20.1647 11.8044 20.3283 11.4379C20.4953 11.0714 20.7424 10.5916 21.0695 9.99854C20.9429 9.99843 20.8229 10.015 20.7095 10.0482C20.5995 10.0781 20.5411 10.1164 20.5344 10.1631C20.5311 10.1764 20.5227 10.1897 20.5094 10.2031C20.4994 10.2131 20.4827 10.218 20.4594 10.218C20.406 10.218 20.3794 10.1913 20.3794 10.138C20.3795 10.0513 20.4479 9.97968 20.5846 9.92313C20.7213 9.86658 20.913 9.83841 21.1597 9.83862L21.5052 9.26891C21.5285 9.23226 21.5536 9.19228 21.5803 9.14897C21.607 9.10233 21.637 9.05235 21.6704 8.99905C21.7038 8.95241 21.7421 8.92911 21.7854 8.92914C21.8121 8.92916 21.8321 8.93752 21.8454 8.95419C21.8587 8.96754 21.8654 8.98254 21.8654 8.99921C21.8653 9.04921 21.7919 9.18248 21.645 9.39902C21.4615 9.66887 21.363 9.81545 21.3497 9.83878C21.3997 9.83882 21.4747 9.84388 21.5747 9.85397C21.6747 9.86072 21.793 9.87248 21.9296 9.88926C21.9796 9.89264 22.0046 9.91766 22.0046 9.96433C22.0045 10.0177 21.9745 10.0443 21.9145 10.0443C21.8912 10.0442 21.8445 10.0409 21.7745 10.0341C21.7045 10.0241 21.6295 10.0157 21.5495 10.0089C21.4695 10.0022 21.4012 10.0005 21.3445 10.0038L21.2695 10.0087C20.5919 11.1981 20.2546 11.9379 20.2577 12.2279L20.2626 12.2679L20.2626 12.2779C20.2626 12.3312 20.2342 12.3578 20.1776 12.3578ZM21.7204 11.9891C21.4504 11.9889 21.3156 11.8371 21.3158 11.5337C21.3159 11.3937 21.3494 11.2471 21.4162 11.0938C21.483 10.9406 21.5714 10.799 21.6816 10.6691C21.7917 10.5358 21.9134 10.4276 22.0468 10.3444C22.1836 10.2611 22.3219 10.2196 22.4619 10.2197C22.5853 10.2198 22.6752 10.2666 22.7318 10.3599C22.7884 10.4533 22.8167 10.5567 22.8166 10.67C22.8164 10.82 22.7863 10.9733 22.7262 11.1299C22.666 11.2832 22.5843 11.4248 22.4808 11.5547C22.3774 11.6846 22.2606 11.7895 22.1305 11.8694C22.0005 11.9493 21.8638 11.9892 21.7204 11.9891ZM21.7156 11.8291C21.7356 11.8291 21.7472 11.8274 21.7506 11.8241C21.8806 11.8076 22.0006 11.761 22.1107 11.6844C22.2208 11.6078 22.3158 11.5129 22.3959 11.3997C22.4794 11.2831 22.5428 11.1581 22.5863 11.0248C22.6297 10.8915 22.6515 10.7599 22.6516 10.6299C22.6517 10.5532 22.63 10.4932 22.5867 10.4498C22.5434 10.4064 22.4885 10.3847 22.4218 10.3847C22.3251 10.3846 22.2218 10.4245 22.1117 10.5044C22.005 10.5843 21.9032 10.6859 21.8064 10.8092C21.713 10.9324 21.6362 11.0624 21.5761 11.199C21.516 11.3322 21.4859 11.4522 21.4858 11.5589C21.4857 11.7389 21.5622 11.829 21.7156 11.8291Z" fill="black"/>
</svg>
